<?xml version="1.0" encoding="iso-8859-1"?>
<!-- Uploaded to: SVG Repo, www.svgrepo.com, Generator: SVG Repo Mixer Tools -->
<svg fill="#000000" height="800px" width="800px" version="1.1" id="Layer_1" xmlns="http://www.w3.org/2000/svg" xmlns:xlink="http://www.w3.org/1999/xlink" 
	 viewBox="0 0 512 512" xml:space="preserve">
<g>
	<g>
		<path d="M255.961,286.654c-5.757,0-10.423,4.667-10.423,10.423v0.497c0,5.755,4.666,10.423,10.423,10.423
			c5.756,0,10.423-4.667,10.423-10.423v-0.497C266.384,291.321,261.718,286.654,255.961,286.654z"/>
	</g>
</g>
<g>
	<g>
		<path d="M221.193,106.607c-7.008,0-12.711,6.009-12.711,13.394c0,7.386,5.701,13.394,12.711,13.394
			c7.008,0,12.71-6.008,12.71-13.394C233.903,112.616,228.201,106.607,221.193,106.607z"/>
	</g>
</g>
<g>
	<g>
		<path d="M290.578,106.607c-7.009,0-12.712,6.009-12.712,13.394c0,7.386,5.702,13.394,12.712,13.394
			c7.007,0,12.708-6.008,12.707-13.394C303.285,112.616,297.585,106.607,290.578,106.607z"/>
	</g>
</g>
<g>
	<g>
		<path d="M276.218,150.18c-2.836-5.008-9.196-6.773-14.204-3.935c-0.674,0.383-2.815,1.104-6.092,1.104
			c-3.277,0-5.419-0.723-6.094-1.105c-5.008-2.836-11.369-1.074-14.204,3.938c-2.836,5.01-1.073,11.369,3.938,14.204
			c4.339,2.455,10.149,3.807,16.36,3.807c6.213,0,12.024-1.353,16.362-3.809C277.292,161.549,279.054,155.19,276.218,150.18z"/>
	</g>
</g>
<g>
	<g>
		<path d="M400.3,273.375l-76.714-76.715c-1.036-1.035-2.238-1.804-3.518-2.314c18.959-14.07,33.308-34.241,39.809-57.915
			c9.965-4.206,16.947-15.33,16.947-28.588c0-13.256-6.982-24.381-16.947-28.587C347.164,32.951,304.455,0,255.876,0
			c-48.597,0-91.319,32.98-104.016,79.314c-9.905,4.249-16.843,15.355-16.843,28.53c0,13.173,6.94,24.28,16.843,28.53
			c6.501,23.723,20.881,43.931,39.884,58.016c-1.239,0.508-2.4,1.263-3.407,2.27l-76.634,76.635
			c-5.25,5.249-8.142,12.228-8.142,19.651c0,7.423,2.891,14.402,8.141,19.651c5.418,5.418,12.533,8.127,19.651,8.126
			c7.116,0,14.234-2.709,19.653-8.126l30.707-30.707v142.904c0,5.757,4.666,10.423,10.423,10.423h7.032v11.102h-11.636
			c-29.899,0-43.282,21.734-43.282,43.272c0,12.355,10.053,22.407,22.408,22.407h61.124c12.355,0,22.407-10.052,22.407-22.407
			l0.057-112.104c0-3.13,2.545-5.675,5.674-5.675c3.13,0,5.676,2.545,5.676,5.675l0.015,112.109
			c0,12.353,10.05,22.403,22.403,22.403h61.095c12.353,0,22.403-10.051,22.403-22.403c0-21.53-13.379-43.256-43.268-43.256h-11.613
			v-11.123h7.076c5.757,0,10.423-4.666,10.423-10.423V281.812l30.867,30.867c5.419,5.417,12.536,8.126,19.651,8.126
			c7.117,0,14.233-2.709,19.65-8.126c5.251-5.249,8.141-12.228,8.141-19.651C408.44,285.604,405.549,278.624,400.3,273.375z
			 M255.876,20.846c34.922,0,66.07,21.111,79.699,52.134c-8.405,4.413-17.742,6.726-27.339,6.726
			c-17.053,0-33.272-7.397-44.499-20.294c-1.979-2.274-4.847-3.579-7.861-3.579c-3.015,0-5.883,1.306-7.862,3.58
			c-11.226,12.896-27.445,20.293-44.5,20.293c-9.614,0-18.935-2.314-27.336-6.728C189.808,41.956,220.954,20.846,255.876,20.846z
			 M189.765,244.525c-0.393,0.295-0.776,0.609-1.134,0.967l-52.364,52.364c-2.71,2.709-7.116,2.711-9.827,0
			c-1.311-1.311-2.035-3.055-2.035-4.909c0-1.854,0.722-3.599,2.036-4.911l71.97-71.97
			C196.882,226.756,193.571,236.853,189.765,244.525z M227.781,491.154h-61.125c-0.862,0-1.562-0.7-1.562-1.561
			c0-3.396,0.797-8.522,3.035-12.727c3.473-6.527,9.819-9.684,19.401-9.684h41.811v22.411h0.001
			C229.343,490.454,228.642,491.154,227.781,491.154z M229.343,446.322h-9.329v-11.102h9.329V446.322z M255.92,350.968
			c-14.623,0-26.52,11.898-26.52,26.521v36.884h-26.842v-71.731h106.726v71.731h-26.843v-36.884
			C282.443,362.865,270.545,350.968,255.92,350.968z M255.961,273.781c5.756,0,10.423-4.667,10.423-10.423v-27.311
			c11.178-3.392,20.083-12.062,23.787-23.103l1.924,0.218c1.843,20.752,9.464,39.552,17.189,50.627v58.008H202.558v-58.008
			c7.724-11.074,15.345-29.874,17.187-50.627l1.925-0.218c3.713,11.068,12.651,19.756,23.868,23.129v27.285
			C245.539,269.113,250.205,273.781,255.961,273.781z M249.877,215.501c1.99,0.112,3.988,0.189,6,0.189
			c2.047,0,4.078-0.08,6.101-0.196c-1.858,0.807-3.905,1.26-6.059,1.26C253.774,216.753,251.731,216.303,249.877,215.501z
			 M282.456,435.218h9.329v11.118h-9.329V435.218z M324.244,467.187c9.576,0,15.918,3.171,19.388,9.692
			c2.237,4.204,3.034,9.325,3.034,12.718c0,0.859-0.699,1.557-1.557,1.557h-61.095c-0.859,0-1.557-0.698-1.557-1.557v-22.41H324.244
			z M255.876,194.843c-41.001,0-76.817-29.089-85.163-69.168c-0.984-4.728-5.087-8.16-9.914-8.294
			c-1.966-0.055-4.937-3.887-4.937-9.536c0-5.651,2.971-9.483,4.935-9.536c3.743-0.103,7.043-2.193,8.799-5.329
			c10.552,4.972,22.07,7.572,33.917,7.572c19.359,0,37.918-7.035,52.361-19.595c14.444,12.559,33.004,19.595,52.36,19.595
			c11.828,0,23.364-2.595,33.925-7.569c1.771,3.152,5.103,5.245,8.87,5.321c1.971,0.04,4.95,3.866,4.95,9.541
			s-2.978,9.501-4.948,9.541c-4.858,0.098-9.003,3.54-9.994,8.296C332.691,165.756,296.875,194.843,255.876,194.843z
			 M385.56,297.938c-2.708,2.709-7.116,2.707-9.823,0l-51.999-52.001c-0.502-0.502-1.045-0.942-1.616-1.322
			c-3.837-7.706-7.176-17.877-8.707-28.645l72.147,72.147c1.312,1.312,2.035,3.057,2.035,4.911
			C387.595,294.882,386.873,296.625,385.56,297.938z"/>
	</g>
</g>
</svg>