<?xml version="1.0" encoding="utf-8"?>
<svg version="1.1" x="0px" y="0px" viewBox="0 2.98 62.51 65.234" style="enable-background:new 0 0 64 64;" xmlns="http://www.w3.org/2000/svg">
  <defs/>
  <path d="M 6.471 68.194 L 15.351 68.194 C 15.361 68.194 15.361 68.194 15.361 68.194 C 15.371 68.194 15.371 68.194 15.371 68.194 L 32.191 68.194 C 32.201 68.194 32.201 68.194 32.201 68.194 C 32.211 68.194 32.211 68.194 32.211 68.194 L 49.041 68.194 C 49.051 68.194 49.051 68.194 49.051 68.194 C 49.061 68.194 49.061 68.194 49.061 68.194 L 57.941 68.194 C 58.161 68.194 58.341 68.024 58.351 67.804 L 58.761 56.694 C 58.831 54.744 58.191 52.884 57.051 51.404 C 57.041 51.384 57.031 51.364 57.021 51.344 C 57.011 51.334 57.001 51.334 56.991 51.324 C 56.021 50.094 54.711 49.144 53.171 48.624 L 45.411 46.034 L 42.271 41.754 C 42.141 41.574 41.901 41.534 41.721 41.654 L 40.461 42.464 L 40.461 37.404 C 43.441 35.034 45.381 31.414 45.491 27.354 C 47.901 26.944 49.291 25.074 49.431 23.364 C 49.551 21.884 48.761 20.704 47.381 20.194 L 47.381 12.534 C 47.001 8.594 44.901 6.544 43.221 5.524 C 41.861 4.644 40.161 4.194 38.321 4.194 L 26.111 4.194 C 24.551 4.294 23.701 5.214 23.271 6.184 C 22.711 6.104 20.171 5.844 18.501 7.244 C 17.561 8.034 17.081 9.204 17.081 10.714 L 17.081 20.074 C 15.871 20.674 15.121 21.774 14.981 22.874 C 14.791 24.434 15.721 26.494 18.921 27.304 C 19.001 30.724 20.381 33.944 22.811 36.394 C 23.171 36.754 23.561 37.084 23.951 37.404 L 23.951 42.474 L 22.681 41.654 C 22.501 41.534 22.261 41.584 22.131 41.754 L 18.991 46.034 L 11.231 48.624 C 9.691 49.144 8.371 50.094 7.411 51.324 C 7.401 51.334 7.391 51.334 7.381 51.344 C 7.371 51.364 7.361 51.384 7.351 51.394 C 6.221 52.874 5.581 54.734 5.651 56.684 L 6.061 67.794 C 6.071 68.014 6.251 68.194 6.471 68.194 Z M 32.221 47.774 L 24.781 42.984 L 24.781 37.994 C 26.961 39.474 29.531 40.274 32.231 40.274 C 34.991 40.274 37.551 39.424 39.681 37.984 L 39.681 42.764 C 39.681 42.824 39.701 42.884 39.721 42.944 L 32.221 47.774 Z M 56.661 52.194 C 57.541 53.474 58.031 55.034 57.971 56.654 L 57.571 67.374 L 49.481 67.374 L 49.481 60.454 C 49.481 59.034 50.101 57.694 51.191 56.784 L 56.661 52.194 Z M 52.941 49.394 C 54.211 49.814 55.301 50.594 56.151 51.564 L 50.671 56.154 C 49.401 57.224 48.671 58.784 48.671 60.454 L 48.671 67.374 L 32.621 67.374 L 32.621 49.254 L 35.811 52.524 C 36.251 52.974 36.841 53.204 37.421 53.204 C 37.961 53.204 38.501 53.004 38.941 52.614 L 45.291 46.834 L 52.941 49.394 Z M 41.871 42.534 L 44.641 46.314 L 38.391 52.004 C 37.821 52.524 36.941 52.504 36.401 51.944 L 32.871 48.324 L 41.871 42.534 Z M 17.901 10.714 C 17.901 9.454 18.281 8.504 19.031 7.864 C 20.311 6.784 22.341 6.894 23.021 6.964 C 22.951 7.254 22.911 7.534 22.911 7.764 C 22.911 7.994 23.081 8.174 23.311 8.184 C 23.311 8.184 23.321 8.184 23.321 8.184 C 23.541 8.184 23.721 8.004 23.731 7.784 C 23.731 7.674 23.811 5.164 26.141 5.014 L 38.321 5.014 C 40.001 5.014 41.561 5.424 42.821 6.184 C 45.051 7.534 46.321 9.694 46.591 12.544 L 46.591 20.034 C 42.441 19.884 41.471 16.074 41.291 14.984 C 41.751 14.774 42.211 14.564 42.671 14.314 C 42.871 14.204 42.951 13.964 42.841 13.764 C 42.731 13.564 42.481 13.484 42.291 13.594 C 35.661 17.124 29.531 16.504 23.571 11.694 C 23.391 11.554 23.141 11.584 23.001 11.754 C 22.861 11.934 22.891 12.184 23.061 12.324 C 23.511 12.684 23.971 13.024 24.431 13.344 C 23.601 15.684 22.111 17.864 20.401 19.224 C 20.071 19.484 19.641 19.644 19.171 19.614 C 18.711 19.604 18.301 19.664 17.911 19.764 L 17.911 10.714 L 17.901 10.714 Z M 23.401 35.804 C 21.041 33.434 19.741 30.294 19.741 26.974 C 19.741 26.784 19.611 26.614 19.421 26.574 C 16.501 25.944 15.631 24.294 15.801 22.974 C 15.911 22.044 16.571 21.134 17.651 20.704 C 17.661 20.704 17.661 20.704 17.661 20.694 C 18.091 20.524 18.581 20.424 19.141 20.444 C 19.781 20.464 20.421 20.254 20.901 19.874 C 22.681 18.454 24.241 16.204 25.131 13.804 C 28.051 15.674 31.051 16.624 34.131 16.624 C 36.241 16.624 38.381 16.184 40.541 15.314 C 40.851 16.784 42.151 20.864 46.851 20.864 C 46.891 20.864 46.931 20.864 46.961 20.864 C 48.121 21.204 48.761 22.104 48.661 23.274 C 48.541 24.734 47.281 26.334 45.091 26.574 C 44.881 26.594 44.721 26.774 44.721 26.984 C 44.721 33.874 39.121 39.474 32.231 39.474 C 28.891 39.464 25.751 38.164 23.401 35.804 Z M 22.571 42.534 L 31.581 48.324 L 28.041 51.944 C 27.501 52.504 26.621 52.524 26.051 52.004 L 19.801 46.314 L 22.571 42.534 Z M 11.501 49.394 L 19.151 46.844 L 25.501 52.624 C 25.931 53.014 26.471 53.214 27.021 53.214 C 27.601 53.214 28.191 52.984 28.631 52.534 L 31.811 49.274 L 31.811 67.384 L 15.781 67.384 L 15.781 60.464 C 15.781 58.804 15.051 57.234 13.781 56.164 L 8.301 51.574 C 9.141 50.584 10.221 49.814 11.501 49.394 Z M 7.781 52.194 L 13.251 56.774 C 14.341 57.684 14.961 59.024 14.961 60.444 L 14.961 67.364 L 6.861 67.364 L 6.461 56.644 C 6.411 55.034 6.891 53.474 7.781 52.194 Z"/>
  <text x="4.415" y="113.435" fill="#000000" font-size="5px" font-weight="bold" font-family="'Helvetica Neue', Helvetica, Arial-Unicode, Arial, Sans-serif" style="white-space: pre; font-size: 5px;">Created by Muhammad Azhar Iqbal</text>
  <text x="8.167" y="100.334" fill="#000000" font-size="5px" font-weight="bold" font-family="'Helvetica Neue', Helvetica, Arial-Unicode, Arial, Sans-serif" style="white-space: pre; font-size: 5px;">from the Noun Project</text>
</svg>